<?xml version="1.0" encoding="utf-8"?>
<!-- Generator: Adobe Illustrator 15.1.0, SVG Export Plug-In . SVG Version: 6.00 Build 0)  -->
<!DOCTYPE svg PUBLIC "-//W3C//DTD SVG 1.1//EN" "http://www.w3.org/Graphics/SVG/1.1/DTD/svg11.dtd">
<svg version="1.1" id="Layer_1" xmlns="http://www.w3.org/2000/svg" xmlns:xlink="http://www.w3.org/1999/xlink" x="0px" y="0px"
	 width="100px" height="100px" viewBox="0 0 100 100" enable-background="new 0 0 100 100" xml:space="preserve">
<path fill="#FFFFFF" d="M8.679,43.062c0,0,38.73-11.802,53.049-16.101c4.215-1.265,8.055,0,8.055,0l20.798,8.747l2.301,2.206
	l0.03,17.984l-1.645,1.438L39.114,73.689l-3.079,0.513l-4.284-0.359L9.336,64.734l-1.863-0.99l-0.154-1.581L7.524,47.8l-0.052-3.351
	L8.679,43.062z"/>
<path fill="#CCE3F5" d="M7.505,53.9c8.362,3.48,16.496,6.92,24.702,10.203c1.193,0.479,2.772,0.496,4.052,0.192
	c2.785-0.646,5.484-1.64,8.229-2.499c0.789,3.919,0.628,3.592-2.721,5.094c-5.331,2.396-10.14,1.901-15.269-0.713
	c-5.173-2.637-10.689-4.587-16.067-6.828C7.143,57.971,7.141,57.979,7.505,53.9"/>
<path fill="#CCE3F5" d="M35.114,74.705c-2.961,0-5.952-0.807-9.144-2.467c-4.928-2.557-10.265-4.549-15.43-6.477l-0.603-0.227
	c-2.074-0.774-3.85-1.965-2.806-5.409l0.159-0.533l0.517,0.216c2.036,0.846,4.114,1.68,6.128,2.48
	c4.696,1.883,9.553,3.829,14.167,6.066c2.42,1.174,4.617,1.746,6.721,1.746c1.766,0,3.494-0.395,5.281-1.209
	c0.923-0.42,1.905-0.692,2.86-0.957c0.416-0.117,0.846-0.236,1.265-0.367l0.48-0.148l0.151,0.48c1.082,3.449,0.514,3.845-2.36,5.131
	C39.992,74.158,37.576,74.705,35.114,74.705"/>
<path fill="#CCE3F5" d="M7.612,60.271c6.817,2.834,13.708,5.352,20.272,8.537c2.383,1.158,4.65,1.799,6.937,1.799
	c1.804,0,3.611-0.398,5.496-1.254c1.282-0.586,2.703-0.881,4.062-1.305c0.981,3.116,0.615,3.311-2.082,4.518
	c-2.464,1.108-4.837,1.637-7.183,1.637c-2.966,0-5.891-0.84-8.913-2.412c-5.141-2.671-10.641-4.695-16.087-6.729
	C7.77,64.188,6.774,63.039,7.612,60.271 M6.972,58.912l-0.325,1.07C6.159,61.6,6.21,62.882,6.803,63.889
	c0.529,0.898,1.44,1.555,2.958,2.118l0.605,0.226c5.148,1.922,10.474,3.908,15.372,6.457c3.265,1.697,6.333,2.521,9.376,2.521
	c2.533,0,5.018-0.563,7.597-1.719c1.463-0.655,2.429-1.089,2.901-2c0.523-1.005,0.202-2.234-0.269-3.742l-0.305-0.959l-0.958,0.301
	c-0.407,0.125-0.818,0.236-1.253,0.36c-0.97,0.271-1.973,0.548-2.93,0.986c-1.722,0.783-3.38,1.162-5.077,1.162
	c-2.024,0-4.146-0.557-6.498-1.694c-4.629-2.253-9.495-4.2-14.201-6.081C12.11,61.018,10.034,60.188,8,59.342L6.972,58.912z"/>
<path fill="#CCE3F5" d="M51.141,69.616c-0.238-3.94-0.089-4.183,3.264-5.214l0.029-0.008c5.289-1.623,10.459-3.229,15.935-4.924
	l6.071-1.881v4.881l-25.26,7.786L51.141,69.616z"/>
<path fill="#CCE3F5" d="M75.938,58.275v3.822c-7.97,2.457-16.067,4.949-24.295,7.489c-0.228-3.75-0.226-3.741,2.94-4.713
	C61.641,62.702,68.697,60.518,75.938,58.275 M76.943,56.906l-1.307,0.406c-1.816,0.562-3.623,1.123-5.422,1.678
	c-5.472,1.695-10.646,3.295-15.932,4.921l-0.029,0.013c-1.748,0.535-2.713,0.83-3.275,1.743c-0.532,0.858-0.47,1.901-0.342,3.979
	l0.078,1.281l1.229-0.377c4.005-1.238,7.981-2.463,11.929-3.681c4.153-1.28,8.274-2.547,12.36-3.812l0.711-0.22v-0.743v-3.822
	V56.906z"/>
<path fill="#CCE3F5" d="M92.73,46.886c0.082,0.469,0.141,0.688,0.149,0.91c0.106,3.354,0.106,3.354-3.198,4.349
	c-2.207,0.668-4.416,1.336-6.63,2.008c-0.983-3.715-0.793-4.09,2.378-5.06C87.797,48.373,90.171,47.661,92.73,46.886"/>
<path fill="#CCE3F5" d="M92.711,40.73c0.424,4.156,0.424,4.16-3.113,5.242c-2.216,0.678-4.435,1.35-6.662,2.024
	c-0.777-3.956-0.746-4.014,2.701-5.075C87.932,42.214,90.23,41.498,92.711,40.73"/>
<path fill="#CCE3F5" d="M82.66,60.049c-0.584-1.66-0.819-2.712-0.405-3.529c0.39-0.77,1.281-1.168,2.692-1.599
	c1.611-0.491,3.223-0.976,4.836-1.46c0.9-0.27,1.806-0.542,2.71-0.816l0.551-0.164l0.095,0.567c0.623,3.856,0.48,4.097-2.988,5.179
	c-2.291,0.711-4.582,1.424-6.865,2.137l-0.461,0.144L82.66,60.049z"/>
<path fill="#CCE3F5" d="M92.641,53.13c0.582,3.612,0.582,3.612-2.641,4.615c-2.291,0.712-4.583,1.425-6.863,2.136
	c-1.068-3.058-0.812-3.628,1.957-4.48C87.605,54.636,90.116,53.891,92.641,53.13 M93.451,51.833l-1.104,0.33
	c-0.902,0.276-1.806,0.545-2.711,0.817c-1.585,0.474-3.225,0.965-4.837,1.455c-1.284,0.395-2.477,0.83-2.995,1.859
	c-0.494,0.975-0.25,2.131,0.379,3.92l0.321,0.922l0.933-0.297c2.274-0.707,4.562-1.416,6.852-2.126L90.3,58.71
	c1.802-0.563,2.796-0.872,3.322-1.793c0.509-0.888,0.342-1.911,0.015-3.95L93.451,51.833z"/>
<path fill="#CCE3F5" d="M17.84,41.233c-0.275,1.27-0.385,1.936-0.571,2.584c-0.198,0.715-0.466,1.408-0.747,2.251
	c4.123,1.699,8.108,3.919,12.381,4.928c3.578,0.846,7.495,0.178,11.249,0.373c1.594,0.089,3.157,0.673,4.736,1.031
	c-0.002,0.358-0.005,0.719-0.005,1.078c-1.661,0.52-3.396,0.881-4.973,1.586c-3.835,1.724-7.327,1.406-11.167-0.433
	c-6.46-3.101-13.203-5.603-19.789-8.437c-0.663-0.285-1.516-1.18-1.483-1.747c0.036-0.589,0.956-1.346,1.647-1.617
	c1.681-0.658,3.428-1.207,5.202-1.549C15.54,41.048,16.838,41.233,17.84,41.233"/>
<path fill="#CCE3F5" d="M44.485,55.691c0.729,3.849,0.595,3.625-2.67,4.992c-5.194,2.17-9.919,1.967-15.002-0.692
	C21.552,57.232,15.862,55.295,10.36,53c-3.219-1.346-3.219-1.348-2.836-5.199c1.924,0.782,3.79,1.524,5.64,2.3
	c6.413,2.659,12.799,5.385,19.253,7.949c1.072,0.429,2.486,0.423,3.631,0.146C38.888,57.507,41.665,56.546,44.485,55.691"/>
<path fill="#CCE3F5" d="M77.893,61.583c0-5.769-0.074-11.504,0.045-17.233c0.041-1.737-0.598-2.491-2.123-3.139
	c-7.655-3.229-15.258-6.572-22.885-9.887c-0.594-0.256-1.168-0.56-2.027-0.979c1.897-0.954,3.369-1.067,5.141-0.281
	c7.602,3.367,15.252,6.614,22.92,9.812c1.455,0.611,2.062,1.33,2.02,2.98c-0.127,5.146-0.068,10.3-0.055,15.441
	C80.938,60.961,80.961,60.961,77.893,61.583"/>
<path fill="#CCE3F5" d="M46.574,71.197c0-6.217-0.057-12.036,0.037-17.856c0.031-1.554-0.494-2.229-1.905-2.8
	c-7.642-3.066-15.234-6.24-22.839-9.389c-0.816-0.336-1.616-0.716-2.655-1.175c1.802-1.087,3.285-1.128,5.062-0.373
	c7.855,3.331,15.761,6.558,23.685,9.731c1.337,0.532,1.805,1.163,1.779,2.61c-0.081,6.051-0.031,12.098-0.031,18.229
	C48.702,70.503,47.799,70.798,46.574,71.197"/>
<path fill="#CCE3F5" d="M82.874,34.194c-3.718-1.427-7.884-3.765-12.313-4.517c-4.295-0.731-8.854,0.023-13.215-1.056
	c4.738-2.135,9.229-3.476,14.428-0.829c6.172,3.145,12.81,5.355,19.201,8.079c0.785,0.336,1.278,1.347,1.906,2.042
	c-0.706,0.52-1.335,1.23-2.125,1.508c-2.546,0.883-5.146,1.613-8.443,2.623C82.516,39.254,82.672,36.944,82.874,34.194"/>
<path fill="#CCE3F5" d="M75.843,52.102c0.503,4.11,0.503,4.116-2.942,5.178c-6.414,1.97-12.83,3.927-19.242,5.883
	c-0.637,0.195-1.282,0.367-2.053,0.583v-4.153C59.63,57.115,67.657,54.634,75.843,52.102"/>
<path fill="#CCE3F5" d="M51.521,57.625c0-1.208-0.104-2.199,0.043-3.152c0.07-0.475,0.508-1.15,0.924-1.279
	c7.763-2.446,15.548-4.821,23.48-7.264v4.209C67.928,52.602,59.822,55.082,51.521,57.625"/>
<path fill="#CCE3F5" d="M51.857,51.393c-0.364-1.258-0.64-2.2-0.955-3.291c6.619-2.007,13.512-4.241,20.513-6.095
	c1.382-0.364,3.147,0.73,4.729,1.151c-0.027,0.267-0.054,0.532-0.08,0.798C68.02,46.425,59.977,48.895,51.857,51.393"/>
<path fill="#CCE3F5" d="M25.722,37.787c7.066-2.143,14.117-4.325,21.203-6.375c0.873-0.251,1.95,0.215,2.936,0.346
	c0.012,0.218,0.019,0.432,0.035,0.644c-3.825,1.156-7.652,2.306-11.472,3.463c-3.033,0.919-6.043,1.929-9.106,2.718
	c-1.114,0.283-2.36,0.044-3.545,0.044C25.757,38.349,25.74,38.065,25.722,37.787"/>
<path fill="#CCE3F5" d="M60.855,37.219c-3.683-2.396-11.286-3.081-16.981-1.539c-5.705,1.547-7.345,4.741-3.658,7.134
	c3.677,2.392,11.288,3.087,16.996,1.537C62.906,42.81,64.533,39.608,60.855,37.219"/>
<path fill="#FFFFFF" d="M58.207,41.213c-1.031-0.033-1.991,0.019-2.562,0.553c0.103,0.045,0.213,0.099,0.317,0.146
	c0,0.021-0.002,0.041-0.004,0.062c-0.474-0.007-0.94-0.022-1.411-0.026c-0.113,0-0.26,0.008-0.344,0.043
	c-0.312,0.128-0.65,0.252-0.896,0.412c-0.176,0.113-0.277,0.277-0.302,0.426c-0.067,0.354-0.303,0.654-0.731,0.933
	c-0.242,0.164-0.33,0.388-0.51,0.604c0.08-0.177,0.088-0.36,0.239-0.508c0.603-0.575,0.397-1.139-0.037-1.692
	c-0.155-0.208-0.485-0.322-0.93-0.317c-0.47,0.009-0.823,0.102-1.011,0.337c-0.299,0.374-0.582,0.756-0.912,1.126
	c-0.245,0.27-0.573,0.519-1.251,0.597c0.104-0.12,0.214-0.238,0.315-0.359c0.287-0.35,0.605-0.693,0.841-1.058
	c0.068-0.1-0.104-0.243-0.164-0.365c-0.241,0.057-0.52,0.093-0.715,0.181c-0.138,0.059-0.147,0.193-0.223,0.287
	c-0.277,0.347-0.54,0.696-0.839,1.036c-0.082,0.09-0.287,0.153-0.492,0.2c0.062-0.122,0.146-0.238,0.184-0.364
	c0.155-0.494,0.287-0.993,0.447-1.488c0.067-0.208-0.053-0.338-0.444-0.392c-0.35-0.05-0.587-0.004-0.643,0.203
	c-0.03,0.113-0.062,0.23-0.152,0.331c-0.103,0.104-0.27,0.196-0.504,0.273c0.078-0.402-0.142-0.786,0.212-1.175
	c0.189-0.212,0.152-0.486,0.146-0.732c-0.002-0.189-0.324-0.269-0.631-0.263c-0.184,0.002-0.38,0.099-0.523,0.176
	c-0.187,0.102-0.321,0.224-0.478,0.342c-0.062-0.014-0.125-0.025-0.186-0.04c0.113-0.251,0.245-0.503,0.333-0.761
	c0.058-0.184,0.043-0.372,0.079-0.562c0.029-0.128,0.046-0.261,0.139-0.378c0.087-0.106,0.358-0.218,0.044-0.305
	c-0.153-0.043-0.425,0.025-0.691,0.04c0.035-0.09,0.082-0.234,0.146-0.376c0.067-0.165,0.173-0.327,0.215-0.498
	c0.019-0.061-0.099-0.138-0.15-0.205c-0.092,0.045-0.19,0.092-0.283,0.145c-0.03,0.011-0.044,0.036-0.127,0.106
	c0.031-0.479,0.061-0.913,0.088-1.356c0.05,0.002,0.156,0.003,0.253,0.021c0.727,0.121,1.427,0.121,2.067-0.127
	c0.697-0.277,1.521-0.333,2.435-0.37c-0.182,0.115-0.325,0.213-0.471,0.307c0.013,0.029,0.035,0.059,0.056,0.088
	c0.542-0.037,1.076-0.069,1.728-0.114c-0.234,0.085-0.403,0.151-0.578,0.204c-0.147,0.048-0.352,0.058-0.459,0.12
	c-0.148,0.088-0.239,0.207-0.351,0.313c0.211,0.014,0.426,0.049,0.633,0.036c0.297-0.01,0.59-0.057,0.884-0.081
	c0.914-0.083,1.828-0.161,2.747-0.24c0.146-0.015,0.295-0.025,0.491,0c-0.339,0.134-0.696,0.259-1.007,0.406
	c-0.131,0.067-0.164,0.182-0.24,0.277c0.189-0.003,0.402,0.021,0.555-0.018c0.551-0.142,1.078-0.308,1.614-0.454
	c0.093-0.028,0.19-0.035,0.327-0.02c-0.319,0.195-0.643,0.389-0.967,0.589c-0.129,0.082-0.269,0.162-0.354,0.258
	c-0.058,0.061-0.026,0.147-0.037,0.222c0.132-0.013,0.312,0,0.386-0.041c0.517-0.276,1.164-0.287,1.838-0.291
	c0.486-0.003,0.969-0.036,1.513-0.06c-0.177,0.228-0.532,0.271-0.866,0.318c-0.352,0.053-0.646,0.122-0.753,0.327
	c-0.138,0.261,0.006,0.37,0.521,0.322c0.385-0.03,0.763-0.098,1.144-0.146c0.553-0.065,1.104-0.143,1.661-0.195
	c0.216-0.021,0.449,0.008,0.824,0.019c-0.181,0.111-0.248,0.167-0.338,0.208c-0.069,0.03-0.177,0.044-0.266,0.046
	c-1.369,0.052-2.374,0.419-3.25,0.938c-0.293,0.17-0.771,0.27-1.195,0.363c-0.683,0.15-0.822,0.403-0.322,0.683
	c0.182,0.103,0.393,0.195,0.568,0.294c0.516,0.313,1.18,0.416,1.949,0.391c0.543-0.02,1.081-0.031,1.622-0.048
	C58.175,41.135,58.193,41.17,58.207,41.213 M46.989,40.811c0.007,0.008,0.01,0.025,0.015,0.035c-0.146,0.104-0.29,0.21-0.448,0.312
	c-0.211,0.133-0.102,0.216,0.16,0.279c0.483,0.112,0.733,0.052,1.01-0.324c0.104-0.14,0.064-0.314,0.091-0.471
	C47.538,40.697,47.265,40.752,46.989,40.811 M53.414,39.091c0.046-0.188,0.105-0.339,0.105-0.491c0-0.034-0.266-0.109-0.302-0.1
	c-0.221,0.096-0.405,0.207-0.603,0.313c-0.012,0.005-0.014,0.016-0.014,0.02c0.006,0.111,0.017,0.219,0.022,0.321
	C52.855,39.135,53.083,39.116,53.414,39.091 M54.936,38.656c-0.035-0.212-0.035-0.373-0.117-0.518
	c-0.017-0.026-0.565-0.021-0.598,0.021c-0.115,0.173-0.123,0.36-0.177,0.546C54.299,38.689,54.549,38.679,54.936,38.656
	 M49.92,37.904c-0.05-0.158-0.019-0.291-0.132-0.362c-0.235-0.152-0.509-0.066-0.736,0.038c-0.249,0.117-0.389,0.304-0.13,0.394
	C49.103,38.041,49.5,37.941,49.92,37.904 M46.225,39.768c-0.231-0.022-0.493-0.091-0.712-0.062c-0.196,0.026-0.34,0.156-0.506,0.24
	c0.142,0.059,0.266,0.152,0.431,0.175C45.944,40.198,46.134,40.109,46.225,39.768 M45.534,39.051
	c0.448-0.141,0.636-0.44,0.419-0.638c-0.142-0.128-0.342-0.136-0.457-0.003C45.31,38.61,45.248,38.826,45.534,39.051 M50.11,41.083
	c-0.271-0.024-0.503-0.061-0.732-0.057c-0.087,0.001-0.173,0.097-0.256,0.147c0.162,0.068,0.322,0.14,0.491,0.207
	c0.032,0.012,0.08,0.03,0.124,0.03c0.168-0.011,0.336-0.021,0.506-0.03C50.202,41.29,50.163,41.204,50.11,41.083 M46.162,38.229
	c0.43-0.213,0.554-0.445,0.319-0.529c-0.096-0.041-0.414-0.024-0.426-0.003c-0.097,0.171-0.142,0.348-0.204,0.526
	C45.981,38.226,46.117,38.226,46.162,38.229 M50.16,39.129c-0.363-0.015-0.637-0.026-0.908-0.035
	c0.023,0.097,0.005,0.263,0.079,0.277c0.234,0.038,0.503,0.026,0.76,0.012C50.118,39.38,50.123,39.257,50.16,39.129 M45.792,39.227
	c0,0.142-0.079,0.281,0.021,0.338c0.111,0.062,0.38,0.053,0.582,0.073c-0.003-0.149-0.003-0.295-0.004-0.447
	C46.229,39.203,46.073,39.212,45.792,39.227 M51.562,37.96c-0.041-0.149,0-0.28-0.102-0.317c-0.13-0.053-0.37-0.034-0.559-0.043
	c-0.022,0.11-0.041,0.225-0.062,0.332C51.041,37.939,51.24,37.947,51.562,37.96 M51.457,40.716c0.08-0.029,0.161-0.06,0.244-0.088
	c-0.111-0.148-0.221-0.288-0.33-0.436c-0.189,0.062-0.378,0.125-0.573,0.182C51.021,40.49,51.234,40.601,51.457,40.716
	 M47.94,37.358c-0.082-0.175-0.11-0.286-0.196-0.379c-0.016-0.016-0.355,0.002-0.367,0.026c-0.054,0.103-0.06,0.213-0.009,0.308
	C47.387,37.344,47.639,37.338,47.94,37.358 M47.04,38.6c0.047,0.023,0.101,0.045,0.15,0.07c0.19-0.085,0.407-0.162,0.562-0.265
	c0.055-0.031-0.045-0.126-0.074-0.192c-0.123,0.022-0.295,0.029-0.357,0.07C47.199,38.378,47.129,38.493,47.04,38.6 M47.885,37.843
	c0.073,0.178,0.114,0.302,0.183,0.414c0.005,0.013,0.325-0.015,0.327-0.027c0.02-0.11,0.019-0.221-0.036-0.324
	C48.341,37.875,48.132,37.872,47.885,37.843 M47.085,37.592c-0.007-0.121-0.013-0.202-0.019-0.278
	c-0.157,0.01-0.366-0.009-0.457,0.035c-0.082,0.041-0.043,0.152-0.056,0.231C46.7,37.584,46.847,37.585,47.085,37.592 M50.921,40.75
	c-0.257,0.002-0.445,0.002-0.624,0.023c-0.024,0-0.033,0.145-0.014,0.149c0.2,0.022,0.406,0.03,0.611,0.043
	C50.902,40.909,50.907,40.853,50.921,40.75 M44.563,38.593c0.1-0.014,0.196-0.027,0.293-0.038c-0.031-0.118-0.068-0.233-0.102-0.346
	c-0.123,0.024-0.35,0.051-0.344,0.068C44.435,38.383,44.508,38.487,44.563,38.593 M48.48,39.834
	c-0.265-0.129-0.508-0.103-0.728-0.006c-0.038,0.018-0.007,0.127,0.04,0.137C48.065,40.025,48.307,40.012,48.48,39.834
	 M48.88,39.258c-0.181,0.014-0.3,0.022-0.418,0.026c0.029,0.07,0.013,0.157,0.091,0.204c0.061,0.037,0.235,0.022,0.357,0.027
	C48.898,39.443,48.895,39.37,48.88,39.258"/>
</svg>
