<?xml version="1.0" encoding="utf-8"?>
<!-- Generator: Adobe Illustrator 15.1.0, SVG Export Plug-In . SVG Version: 6.00 Build 0)  -->
<!DOCTYPE svg PUBLIC "-//W3C//DTD SVG 1.1//EN" "http://www.w3.org/Graphics/SVG/1.1/DTD/svg11.dtd">
<svg version="1.1" id="Layer_1" xmlns="http://www.w3.org/2000/svg" xmlns:xlink="http://www.w3.org/1999/xlink" x="0px" y="0px"
	 width="100px" height="100px" viewBox="0 0 100 100" enable-background="new 0 0 100 100" xml:space="preserve">
<g>
	<path fill="#FFFFFF" d="M7.145,45.104c0,0,39.54-12.048,54.155-16.435c4.304-1.292,8.226,0,8.226,0l21.229,8.928l2.348,2.254
		l0.031,18.359l-1.678,1.466l-53.237,16.69l-3.143,0.525l-4.375-0.367L7.82,67.229l-1.904-1.013l-0.154-1.61l0.208-14.662
		L5.916,46.52L7.145,45.104z"/>
	<path fill="#E32128" d="M5.951,56.168c8.534,3.553,16.839,7.064,25.213,10.416c1.222,0.49,2.833,0.506,4.137,0.199
		c2.843-0.662,5.6-1.678,8.401-2.55c0.806,3.998,0.642,3.663-2.776,5.198c-5.442,2.444-10.349,1.939-15.586-0.73
		c-5.279-2.688-10.913-4.684-16.402-6.971C5.581,60.324,5.578,60.334,5.951,56.168z"/>
	<g>
		<path fill="#E32128" d="M34.134,77.408c-3.022,0-6.076-0.822-9.335-2.518c-5.029-2.613-10.479-4.648-15.75-6.614l-0.615-0.23
			c-2.116-0.789-3.929-2.006-2.866-5.52l0.166-0.546l0.524,0.221c2.081,0.863,4.203,1.712,6.254,2.532
			c4.798,1.921,9.757,3.907,14.466,6.192c2.47,1.2,4.713,1.785,6.856,1.785c1.806,0,3.57-0.406,5.395-1.235
			c0.941-0.429,1.946-0.708,2.917-0.978c0.427-0.117,0.868-0.242,1.293-0.375l0.49-0.151l0.154,0.49
			c1.107,3.521,0.525,3.922-2.407,5.235C39.113,76.851,36.646,77.408,34.134,77.408z"/>
		<path fill="#FFFFFF" d="M6.061,62.676c6.957,2.889,13.993,5.459,20.691,8.713c2.433,1.184,4.751,1.836,7.082,1.836
			c1.84,0,3.688-0.407,5.608-1.279c1.313-0.598,2.765-0.898,4.151-1.33c1,3.182,0.626,3.379-2.127,4.611
			c-2.514,1.131-4.936,1.666-7.331,1.666c-3.029,0-6.016-0.857-9.099-2.458c-5.25-2.729-10.862-4.796-16.421-6.87
			C6.223,66.672,5.207,65.497,6.061,62.676 M5.405,61.289l-0.329,1.089c-0.501,1.652-0.449,2.956,0.157,3.988
			c0.541,0.916,1.472,1.583,3.02,2.163l0.616,0.229c5.256,1.96,10.691,3.99,15.691,6.59c3.335,1.733,6.466,2.575,9.574,2.575
			c2.585,0,5.121-0.575,7.752-1.756c1.494-0.668,2.48-1.11,2.964-2.041c0.534-1.026,0.207-2.285-0.275-3.819l-0.308-0.979
			l-0.981,0.306c-0.416,0.131-0.834,0.246-1.277,0.369c-0.991,0.274-2.015,0.56-2.992,1.005c-1.757,0.798-3.452,1.188-5.183,1.188
			c-2.064,0-4.233-0.564-6.632-1.731c-4.725-2.295-9.693-4.283-14.498-6.207c-2.051-0.82-4.171-1.668-6.249-2.531L5.405,61.289
			L5.405,61.289z"/>
	</g>
	<g>
		<path fill="#E32128" d="M50.493,72.214c-0.246-4.022-0.091-4.271,3.331-5.321l0.031-0.01c5.398-1.662,10.676-3.297,16.266-5.027
			l6.197-1.918v4.979l-25.785,7.95L50.493,72.214z"/>
		<path fill="#FFFFFF" d="M75.804,60.635c0,1.332,0,2.452,0,3.9c-8.13,2.51-16.399,5.059-24.798,7.646
			c-0.233-3.828-0.228-3.816,3.002-4.809C61.214,65.156,68.414,62.922,75.804,60.635 M76.834,59.239L75.5,59.65
			c-1.855,0.575-3.699,1.146-5.535,1.714c-5.586,1.729-10.863,3.364-16.26,5.024l-0.035,0.01c-1.781,0.55-2.766,0.852-3.341,1.781
			c-0.544,0.879-0.479,1.943-0.35,4.064l0.081,1.307l1.25-0.385c4.09-1.262,8.152-2.512,12.178-3.756
			c4.242-1.309,8.448-2.604,12.619-3.889l0.727-0.225v-0.762v-3.9V59.239L76.834,59.239z"/>
	</g>
	<path fill="#E32128" d="M92.947,49.01c0.084,0.479,0.145,0.702,0.156,0.926c0.108,3.422,0.108,3.422-3.266,4.44
		c-2.256,0.684-4.509,1.365-6.768,2.051c-1.006-3.793-0.811-4.178,2.426-5.166C87.912,50.528,90.334,49.799,92.947,49.01z"/>
	<path fill="#E32128" d="M92.928,42.726c0.435,4.245,0.435,4.247-3.18,5.352c-2.26,0.691-4.523,1.376-6.797,2.068
		c-0.797-4.044-0.764-4.1,2.752-5.183C88.053,44.238,90.395,43.509,92.928,42.726z"/>
	<g>
		<path fill="#E32128" d="M82.67,62.445c-0.596-1.692-0.838-2.769-0.415-3.6c0.397-0.787,1.309-1.195,2.749-1.637
			c1.645-0.503,3.29-0.995,4.936-1.487c0.922-0.277,1.844-0.554,2.767-0.831l0.565-0.172l0.091,0.581
			c0.636,3.935,0.494,4.183-3.05,5.288c-2.338,0.724-4.677,1.451-7.005,2.178l-0.475,0.147L82.67,62.445z"/>
		<path fill="#FFFFFF" d="M92.854,55.383c0.596,3.688,0.596,3.688-2.694,4.715c-2.338,0.726-4.676,1.451-7.006,2.178
			c-1.095-3.121-0.831-3.707,2.001-4.574C87.719,56.922,90.281,56.158,92.854,55.383 M93.684,54.059l-1.127,0.338
			c-0.922,0.279-1.842,0.556-2.766,0.832c-1.617,0.484-3.289,0.985-4.938,1.487c-1.311,0.401-2.528,0.847-3.059,1.897
			c-0.506,0.996-0.254,2.175,0.388,4.002l0.329,0.938l0.949-0.295c2.325-0.727,4.658-1.451,6.994-2.176l0.012-0.004
			c1.841-0.573,2.855-0.89,3.393-1.831c0.518-0.905,0.349-1.948,0.013-4.03L93.684,54.059L93.684,54.059z"/>
	</g>
	<path fill="#E32128" d="M16.501,43.241c-0.283,1.296-0.393,1.974-0.583,2.635c-0.204,0.729-0.477,1.438-0.766,2.296
		c4.21,1.737,8.279,4.002,12.641,5.033c3.652,0.863,7.648,0.183,11.485,0.383c1.625,0.087,3.22,0.684,4.832,1.051
		c-0.002,0.367-0.005,0.735-0.005,1.1c-1.697,0.532-3.466,0.901-5.076,1.622c-3.917,1.756-7.48,1.437-11.401-0.444
		c-6.593-3.163-13.475-5.717-20.198-8.612C6.753,48.013,5.882,47.1,5.917,46.52c0.038-0.597,0.973-1.371,1.679-1.649
		c1.715-0.671,3.501-1.234,5.311-1.583C14.152,43.048,15.478,43.241,16.501,43.241z"/>
	<path fill="#E32128" d="M43.7,57.998c0.744,3.929,0.607,3.697-2.725,5.094c-5.305,2.219-10.127,2.01-15.315-0.706
		c-5.372-2.812-11.179-4.796-16.795-7.137c-3.285-1.373-3.285-1.374-2.895-5.306c1.964,0.798,3.868,1.559,5.755,2.344
		c6.546,2.719,13.066,5.504,19.654,8.119c1.093,0.436,2.538,0.428,3.705,0.145C37.986,59.853,40.82,58.87,43.7,57.998z"/>
	<path fill="#E32128" d="M77.803,64.01c0-5.888-0.077-11.742,0.047-17.589c0.039-1.774-0.611-2.546-2.169-3.203
		c-7.819-3.299-15.579-6.713-23.36-10.094c-0.605-0.264-1.193-0.572-2.073-0.998c1.938-0.975,3.441-1.089,5.249-0.288
		c7.76,3.434,15.57,6.75,23.398,10.017c1.482,0.622,2.1,1.356,2.06,3.043c-0.13,5.253-0.069,10.509-0.053,15.765
		C80.908,63.377,80.935,63.377,77.803,64.01z"/>
	<path fill="#E32128" d="M45.832,73.826c0-6.345-0.059-12.289,0.04-18.229c0.029-1.581-0.508-2.277-1.946-2.857
		c-7.798-3.13-15.551-6.372-23.314-9.584c-0.834-0.343-1.649-0.729-2.712-1.2c1.842-1.112,3.355-1.152,5.168-0.38
		c8.02,3.401,16.086,6.696,24.178,9.932c1.361,0.545,1.841,1.19,1.816,2.668c-0.085,6.174-0.036,12.349-0.036,18.607
		C48.006,73.117,47.082,73.418,45.832,73.826z"/>
	<path fill="#E32128" d="M82.886,36.054c-3.795-1.455-8.046-3.844-12.568-4.611c-4.388-0.748-9.04,0.022-13.489-1.077
		c4.836-2.18,9.419-3.548,14.727-0.845c6.301,3.207,13.078,5.463,19.603,8.245c0.801,0.341,1.302,1.376,1.946,2.085
		c-0.723,0.527-1.363,1.254-2.17,1.537c-2.599,0.903-5.256,1.647-8.62,2.677C82.518,41.217,82.682,38.861,82.886,36.054z"/>
	<path fill="#E32128" d="M75.709,54.332c0.515,4.195,0.515,4.203-3.004,5.287c-6.549,2.008-13.094,4.004-19.643,6.004
		c-0.649,0.199-1.311,0.375-2.093,0.593c0-1.462,0-2.753,0-4.237C59.157,59.448,67.354,56.916,75.709,54.332z"/>
	<path fill="#E32128" d="M50.881,59.971c0-1.23-0.103-2.244,0.043-3.219c0.075-0.483,0.521-1.174,0.943-1.305
		c7.926-2.496,15.869-4.924,23.973-7.415c0,1.488,0,2.772,0,4.296C67.628,54.843,59.355,57.378,50.881,59.971z"/>
	<path fill="#E32128" d="M51.225,53.609c-0.372-1.283-0.65-2.244-0.974-3.359c6.755-2.048,13.794-4.327,20.939-6.221
		c1.409-0.374,3.21,0.744,4.827,1.174c-0.027,0.271-0.055,0.542-0.081,0.813C67.723,48.54,59.512,51.061,51.225,53.609z"/>
	<path fill="#E32128" d="M24.547,39.722c7.211-2.188,14.407-4.417,21.643-6.509c0.892-0.256,1.991,0.219,2.996,0.354
		c0.01,0.222,0.021,0.439,0.035,0.656c-3.904,1.179-7.808,2.354-11.709,3.534c-3.095,0.937-6.168,1.97-9.295,2.774
		c-1.138,0.291-2.409,0.047-3.618,0.047C24.58,40.292,24.565,40.006,24.547,39.722z"/>
	<path fill="#E32128" d="M60.412,39.142c-3.762-2.446-11.522-3.147-17.337-1.573c-5.824,1.581-7.497,4.84-3.731,7.283
		c3.751,2.439,11.521,3.148,17.346,1.57C62.502,44.845,64.165,41.58,60.412,39.142z"/>
	<path fill="#FFFFFF" d="M57.707,43.215c-1.053-0.029-2.032,0.022-2.615,0.565c0.104,0.05,0.214,0.099,0.324,0.152
		c0,0.021-0.003,0.041-0.005,0.061c-0.481-0.008-0.96-0.021-1.441-0.024c-0.116,0-0.262,0.007-0.352,0.042
		c-0.317,0.13-0.66,0.257-0.914,0.421c-0.179,0.115-0.281,0.282-0.31,0.432c-0.066,0.363-0.307,0.668-0.746,0.955
		c-0.248,0.166-0.338,0.394-0.519,0.618c0.082-0.182,0.093-0.371,0.246-0.518c0.612-0.588,0.407-1.164-0.041-1.734
		c-0.158-0.206-0.495-0.325-0.949-0.318c-0.479,0.005-0.838,0.104-1.031,0.343c-0.306,0.383-0.595,0.773-0.932,1.15
		c-0.25,0.277-0.585,0.527-1.276,0.607c0.107-0.122,0.221-0.242,0.323-0.364c0.293-0.358,0.617-0.712,0.859-1.081
		c0.067-0.103-0.105-0.247-0.167-0.374c-0.249,0.06-0.532,0.097-0.731,0.187c-0.141,0.06-0.151,0.195-0.229,0.292
		c-0.281,0.354-0.55,0.711-0.856,1.057c-0.083,0.093-0.293,0.157-0.5,0.202c0.062-0.122,0.149-0.243,0.187-0.367
		c0.159-0.508,0.293-1.016,0.458-1.524c0.066-0.208-0.055-0.342-0.453-0.398c-0.359-0.05-0.6-0.005-0.657,0.208
		c-0.03,0.116-0.064,0.237-0.159,0.339c-0.099,0.109-0.273,0.199-0.512,0.278c0.079-0.408-0.144-0.805,0.219-1.201
		c0.194-0.214,0.154-0.495,0.149-0.747c-0.003-0.193-0.334-0.274-0.647-0.269c-0.184,0.004-0.389,0.101-0.533,0.18
		c-0.189,0.103-0.328,0.23-0.488,0.348c-0.064-0.013-0.127-0.025-0.189-0.037c0.114-0.259,0.252-0.517,0.339-0.778
		c0.06-0.188,0.044-0.383,0.082-0.575c0.027-0.129,0.047-0.266,0.142-0.384c0.089-0.111,0.364-0.225,0.044-0.311
		c-0.159-0.043-0.433,0.023-0.706,0.043c0.035-0.095,0.084-0.241,0.149-0.385c0.07-0.169,0.177-0.338,0.219-0.509
		c0.017-0.066-0.1-0.142-0.155-0.211c-0.095,0.048-0.194,0.095-0.288,0.146c-0.031,0.017-0.047,0.04-0.13,0.114
		c0.031-0.493,0.06-0.934,0.09-1.387c0.05,0.003,0.16,0.005,0.259,0.021c0.744,0.125,1.456,0.127,2.11-0.129
		c0.714-0.281,1.552-0.34,2.486-0.378c-0.187,0.12-0.336,0.216-0.483,0.313c0.017,0.03,0.038,0.06,0.057,0.089
		c0.553-0.036,1.103-0.072,1.764-0.117c-0.24,0.087-0.411,0.155-0.589,0.209c-0.149,0.046-0.359,0.06-0.468,0.122
		c-0.154,0.092-0.244,0.213-0.358,0.322c0.213,0.015,0.433,0.047,0.647,0.038c0.303-0.012,0.599-0.058,0.9-0.086
		c0.933-0.082,1.864-0.164,2.802-0.246c0.154-0.013,0.307-0.025,0.502,0.002c-0.346,0.136-0.709,0.261-1.025,0.414
		c-0.134,0.065-0.168,0.188-0.242,0.285c0.188-0.005,0.407,0.02,0.562-0.02c0.561-0.144,1.101-0.311,1.65-0.465
		c0.09-0.024,0.191-0.035,0.334-0.018c-0.329,0.2-0.662,0.398-0.988,0.6c-0.132,0.084-0.275,0.166-0.365,0.262
		c-0.055,0.064-0.025,0.152-0.035,0.228c0.135-0.012,0.318,0,0.392-0.042c0.525-0.282,1.188-0.294,1.876-0.298
		c0.498-0.003,0.992-0.036,1.545-0.058c-0.18,0.229-0.543,0.273-0.887,0.323c-0.354,0.052-0.656,0.124-0.766,0.334
		c-0.141,0.263,0.01,0.378,0.532,0.332c0.392-0.035,0.778-0.103,1.169-0.15c0.562-0.07,1.125-0.147,1.691-0.201
		c0.221-0.021,0.464,0.008,0.842,0.017c-0.18,0.114-0.248,0.172-0.342,0.214c-0.074,0.029-0.182,0.044-0.273,0.047
		c-1.396,0.054-2.42,0.427-3.316,0.957c-0.299,0.174-0.789,0.277-1.221,0.372c-0.695,0.153-0.84,0.411-0.326,0.7
		c0.184,0.103,0.396,0.196,0.574,0.301c0.529,0.318,1.207,0.422,1.992,0.395c0.553-0.02,1.105-0.033,1.655-0.049
		C57.679,43.137,57.693,43.175,57.707,43.215z M46.254,42.802c0.006,0.013,0.01,0.028,0.018,0.042
		c-0.152,0.105-0.299,0.214-0.458,0.317c-0.217,0.138-0.105,0.221,0.161,0.285c0.493,0.118,0.749,0.052,1.031-0.329
		c0.107-0.146,0.067-0.32,0.094-0.481C46.817,42.693,46.537,42.748,46.254,42.802z M52.812,41.05c0.049-0.191,0.109-0.345,0.109-0.5
		c0-0.035-0.273-0.113-0.307-0.099c-0.225,0.093-0.414,0.208-0.615,0.316c-0.01,0.006-0.014,0.017-0.014,0.025
		c0.008,0.109,0.017,0.219,0.021,0.325C52.244,41.098,52.477,41.078,52.812,41.05z M54.366,40.609
		c-0.036-0.217-0.036-0.379-0.12-0.53c-0.014-0.025-0.576-0.021-0.607,0.021c-0.118,0.175-0.129,0.369-0.182,0.557
		C53.718,40.645,53.973,40.631,54.366,40.609z M49.248,39.84c-0.052-0.162-0.02-0.297-0.136-0.371
		c-0.239-0.152-0.518-0.065-0.747,0.039c-0.259,0.12-0.403,0.312-0.135,0.406C48.414,39.979,48.818,39.878,49.248,39.84z
		 M45.476,41.743c-0.239-0.025-0.504-0.094-0.725-0.063c-0.204,0.028-0.35,0.158-0.522,0.245c0.147,0.062,0.273,0.154,0.442,0.179
		C45.189,42.181,45.384,42.091,45.476,41.743z M44.772,41.009c0.457-0.141,0.646-0.447,0.425-0.649
		c-0.144-0.129-0.348-0.139-0.467-0.004C44.542,40.562,44.479,40.781,44.772,41.009z M49.437,43.083
		c-0.273-0.024-0.51-0.061-0.744-0.056c-0.09,0.001-0.174,0.099-0.258,0.151c0.164,0.07,0.328,0.142,0.497,0.21
		c0.036,0.015,0.085,0.033,0.13,0.031c0.169-0.008,0.343-0.02,0.515-0.031C49.535,43.298,49.495,43.21,49.437,43.083z
		 M45.414,40.169c0.436-0.215,0.562-0.448,0.323-0.54c-0.099-0.037-0.422-0.025-0.434-0.002c-0.098,0.173-0.146,0.356-0.208,0.537
		C45.228,40.167,45.364,40.167,45.414,40.169z M49.489,41.09c-0.369-0.015-0.647-0.025-0.926-0.037
		c0.025,0.1,0.005,0.271,0.083,0.285c0.238,0.04,0.515,0.025,0.773,0.011C49.449,41.349,49.457,41.221,49.489,41.09z M45.03,41.191
		c0,0.144-0.077,0.285,0.025,0.343c0.115,0.064,0.388,0.054,0.595,0.077c-0.003-0.152-0.003-0.304-0.005-0.456
		C45.481,41.165,45.319,41.176,45.03,41.191z M50.922,39.896c-0.041-0.151,0-0.285-0.1-0.326c-0.132-0.052-0.377-0.029-0.575-0.04
		c-0.019,0.112-0.04,0.226-0.061,0.337C50.39,39.875,50.595,39.884,50.922,39.896z M50.818,42.71c0.079-0.03,0.163-0.059,0.246-0.09
		c-0.111-0.149-0.224-0.296-0.336-0.442c-0.193,0.062-0.389,0.124-0.584,0.186C50.371,42.479,50.592,42.595,50.818,42.71z
		 M47.225,39.286c-0.082-0.181-0.112-0.293-0.199-0.39c-0.015-0.017-0.363,0.003-0.375,0.031c-0.053,0.099-0.06,0.212-0.008,0.309
		C46.661,39.267,46.916,39.262,47.225,39.286z M46.307,40.551c0.05,0.022,0.103,0.045,0.152,0.069
		c0.197-0.086,0.417-0.165,0.577-0.268c0.055-0.033-0.044-0.129-0.076-0.196c-0.125,0.024-0.302,0.029-0.364,0.075
		C46.469,40.326,46.399,40.442,46.307,40.551z M47.17,39.776c0.075,0.185,0.114,0.308,0.184,0.424
		c0.005,0.009,0.333-0.015,0.336-0.031c0.02-0.109,0.017-0.224-0.038-0.328C47.636,39.812,47.424,39.809,47.17,39.776z
		 M46.354,39.523c-0.011-0.128-0.015-0.207-0.021-0.286c-0.159,0.01-0.373-0.01-0.465,0.035c-0.087,0.043-0.043,0.156-0.057,0.236
		C45.961,39.513,46.111,39.516,46.354,39.523z M50.268,42.742c-0.262,0.009-0.452,0.008-0.637,0.029
		c-0.022,0-0.033,0.147-0.013,0.149c0.204,0.023,0.416,0.031,0.624,0.044C50.251,42.906,50.255,42.847,50.268,42.742z
		 M43.779,40.542c0.102-0.013,0.201-0.025,0.302-0.039c-0.035-0.118-0.07-0.236-0.105-0.351c-0.125,0.024-0.358,0.053-0.353,0.069
		C43.647,40.329,43.722,40.435,43.779,40.542z M47.777,41.812c-0.268-0.133-0.517-0.104-0.741-0.007
		c-0.04,0.018-0.006,0.13,0.04,0.14C47.352,42.005,47.601,41.99,47.777,41.812z M48.186,41.224
		c-0.185,0.011-0.306,0.018-0.429,0.024c0.03,0.072,0.015,0.161,0.094,0.21c0.061,0.037,0.239,0.021,0.363,0.028
		C48.205,41.412,48.2,41.337,48.186,41.224z"/>
</g>
</svg>
